# xmcd
#
# Track frame offsets: 
#        150
#        15595
#        30700
#        46800
#        60335
#        78570
#        93175
#        108080
#        124607
#        143505
#
# Disc length: 2085 seconds
#
# Revision: 8
# Processed by: cddbd v1.5.2PL0 Copyright (c) Steve Scherf et al.
# Submitted via: ExactAudioCopyFreeDBPlugin 1.0
#
DISCID=6b08230a
DTITLE=Keith Whitley - Super Hits
DYEAR=1996
DGENRE=Country
TTITLE0=Miami, My Amy
TTITLE1=Ten Feet Away
TTITLE2=I'm No Stranger To The Rain
TTITLE3=Homecoming '63
TTITLE4=It Ain't Nothin'
TTITLE5=I Wonder Do You Think Of Me
TTITLE6=Some Old Side Road
TTITLE7=When You Say Nothing At All
TTITLE8=Don't Close Your Eyes
TTITLE9=Hard Livin'
EXTD=
EXTT0=
EXTT1=
EXTT2=
EXTT3=
EXTT4=
EXTT5=
EXTT6=
EXTT7=
EXTT8=
EXTT9=
PLAYORDER=
